<svg width="800" height="800" viewBox="0 0 800 800" fill="none" xmlns="http://www.w3.org/2000/svg">
<rect width="800" height="800" rx="70" fill="white"/>
<rect width="800" height="800" fill="black"/>
<path d="M185.669 193C185.669 187.477 190.146 183 195.669 183H248.241V245.572H185.669V193Z" fill="#FF0000"/>
<rect x="185.669" y="245.572" width="62.5723" height="62.5723" fill="#FF0000"/>
<path d="M185.669 308.145H248.241V360.717C248.241 366.24 243.764 370.717 238.241 370.717H195.669C190.146 370.717 185.669 366.24 185.669 360.717V308.145Z" fill="#FF0000"/>
<rect x="310.813" y="308.145" width="62.5723" height="62.5723" rx="10" fill="#FF0000"/>
<rect x="248.241" y="183" width="62.5723" height="62.5723" fill="#FF0000"/>
<path d="M310.813 183H363.385C368.908 183 373.385 187.477 373.385 193V235.572C373.385 241.095 368.908 245.572 363.385 245.572H310.813V183Z" fill="#FF0000"/>
<path d="M310.813 429.94C310.813 424.417 315.29 419.94 320.813 419.94H363.385C368.908 419.94 373.385 424.417 373.385 429.94V482.513H310.813V429.94Z" fill="#FF0000"/>
<rect x="310.813" y="482.513" width="62.5723" height="62.5723" fill="#FF0000"/>
<path d="M310.813 545.085H373.385V597.657C373.385 603.18 368.908 607.657 363.385 607.657H310.813V545.085Z" fill="#FF0000"/>
<rect x="248.241" y="545.085" width="62.5723" height="62.5723" fill="#FF0000"/>
<path d="M185.669 545.085H248.241V607.657H195.669C190.146 607.657 185.669 603.18 185.669 597.657V545.085Z" fill="#FF0000"/>
<path d="M185.669 492.513C185.669 486.99 190.146 482.513 195.669 482.513H238.241C243.764 482.513 248.241 486.99 248.241 492.513V545.085H185.669V492.513Z" fill="#FF0000"/>
<path d="M435.958 193C435.958 187.477 440.435 183 445.958 183H488.53C494.053 183 498.53 187.477 498.53 193V245.572H435.958V193Z" fill="#FF0000"/>
<rect x="435.958" y="245.572" width="62.5723" height="62.5723" fill="#FF0000"/>
<path d="M435.958 308.145H498.53V370.717H445.958C440.435 370.717 435.958 366.24 435.958 360.717V308.145Z" fill="#FF0000"/>
<rect x="498.53" y="308.145" width="62.5723" height="62.5723" fill="#FF0000"/>
<path d="M498.53 245.572H551.102C556.625 245.572 561.102 250.049 561.102 255.572V308.145H498.53V245.572Z" fill="#FF0000"/>
<path d="M561.102 308.145H613.674C619.197 308.145 623.674 312.622 623.674 318.145V360.717C623.674 366.24 619.197 370.717 613.674 370.717H561.102V308.145Z" fill="#FF0000"/>
<path d="M435.958 429.94C435.958 424.417 440.435 419.94 445.958 419.94H488.53C494.053 419.94 498.53 424.417 498.53 429.94V482.513H435.958V429.94Z" fill="#FF0000"/>
<path d="M561.102 429.94C561.102 424.417 565.579 419.94 571.102 419.94H613.674C619.197 419.94 623.674 424.417 623.674 429.94V482.513H561.102V429.94Z" fill="#FF0000"/>
<rect x="435.958" y="482.513" width="62.5723" height="62.5723" fill="#FF0000"/>
<rect x="561.102" y="482.513" width="62.5723" height="62.5723" fill="#FF0000"/>
<path d="M435.958 545.085H498.53V597.657C498.53 603.18 494.053 607.657 488.53 607.657H445.958C440.435 607.657 435.958 603.18 435.958 597.657V545.085Z" fill="#FF0000"/>
<path d="M561.102 545.085H623.674V597.657C623.674 603.18 619.197 607.657 613.674 607.657H571.102C565.579 607.657 561.102 603.18 561.102 597.657V545.085Z" fill="#FF0000"/>
<path d="M177.326 201.343C177.326 195.82 181.803 191.343 187.326 191.343H239.898V253.915H177.326V201.343Z" fill="#30F2F2"/>
<rect x="177.326" y="253.915" width="62.5723" height="62.5723" fill="#30F2F2"/>
<path d="M177.326 316.488H239.898V369.06C239.898 374.583 235.421 379.06 229.898 379.06H187.326C181.803 379.06 177.326 374.583 177.326 369.06V316.488Z" fill="#30F2F2"/>
<rect x="302.47" y="316.488" width="62.5723" height="62.5723" rx="10" fill="#30F2F2"/>
<rect x="239.898" y="191.343" width="62.5723" height="62.5723" fill="#30F2F2"/>
<path d="M302.47 191.343H355.042C360.565 191.343 365.042 195.82 365.042 201.343V243.915C365.042 249.438 360.565 253.915 355.042 253.915H302.47V191.343Z" fill="#30F2F2"/>
<path d="M302.47 438.283C302.47 432.76 306.947 428.283 312.47 428.283H355.042C360.565 428.283 365.042 432.76 365.042 438.283V490.856H302.47V438.283Z" fill="#30F2F2"/>
<rect x="302.47" y="490.856" width="62.5723" height="62.5723" fill="#30F2F2"/>
<path d="M302.47 553.428H365.042V606C365.042 611.523 360.565 616 355.042 616H302.47V553.428Z" fill="#30F2F2"/>
<rect x="239.898" y="553.428" width="62.5723" height="62.5723" fill="#30F2F2"/>
<path d="M177.326 553.428H239.898V616H187.326C181.803 616 177.326 611.523 177.326 606V553.428Z" fill="#30F2F2"/>
<path d="M177.326 500.856C177.326 495.333 181.803 490.856 187.326 490.856H229.898C235.421 490.856 239.898 495.333 239.898 500.856V553.428H177.326V500.856Z" fill="#30F2F2"/>
<path d="M427.615 201.343C427.615 195.82 432.092 191.343 437.615 191.343H480.187C485.71 191.343 490.187 195.82 490.187 201.343V253.915H427.615V201.343Z" fill="#30F2F2"/>
<rect x="427.615" y="253.915" width="62.5723" height="62.5723" fill="#30F2F2"/>
<path d="M427.615 316.488H490.187V379.06H437.615C432.092 379.06 427.615 374.583 427.615 369.06V316.488Z" fill="#30F2F2"/>
<rect x="490.187" y="316.488" width="62.5723" height="62.5723" fill="#30F2F2"/>
<path d="M490.187 253.915H542.759C548.282 253.915 552.759 258.392 552.759 263.915V316.488H490.187V253.915Z" fill="#30F2F2"/>
<path d="M552.759 316.488H605.331C610.854 316.488 615.331 320.965 615.331 326.488V369.06C615.331 374.583 610.854 379.06 605.331 379.06H552.759V316.488Z" fill="#30F2F2"/>
<path d="M427.615 438.283C427.615 432.76 432.092 428.283 437.615 428.283H480.187C485.71 428.283 490.187 432.76 490.187 438.283V490.856H427.615V438.283Z" fill="#30F2F2"/>
<path d="M552.759 438.283C552.759 432.76 557.236 428.283 562.759 428.283H605.331C610.854 428.283 615.331 432.76 615.331 438.283V490.856H552.759V438.283Z" fill="#30F2F2"/>
<rect x="427.615" y="490.856" width="62.5723" height="62.5723" fill="#30F2F2"/>
<rect x="552.759" y="490.856" width="62.5723" height="62.5723" fill="#30F2F2"/>
<path d="M427.615 553.428H490.187V606C490.187 611.523 485.71 616 480.187 616H437.615C432.092 616 427.615 611.523 427.615 606V553.428Z" fill="#30F2F2"/>
<path d="M552.759 553.428H615.331V606C615.331 611.523 610.854 616 605.331 616H562.759C557.236 616 552.759 611.523 552.759 606V553.428Z" fill="#30F2F2"/>
<path d="M181.497 197.172C181.497 191.649 185.974 187.172 191.497 187.172H244.069V249.744H181.497V197.172Z" fill="white"/>
<rect x="181.497" y="249.744" width="62.5723" height="62.5723" fill="white"/>
<path d="M181.497 312.316H244.069V364.888C244.069 370.411 239.592 374.888 234.069 374.888H191.497C185.974 374.888 181.497 370.411 181.497 364.888V312.316Z" fill="white"/>
<rect x="306.642" y="312.316" width="62.5723" height="62.5723" rx="10" fill="white"/>
<rect x="244.069" y="187.172" width="62.5723" height="62.5723" fill="white"/>
<path d="M306.642 187.172H359.214C364.737 187.172 369.214 191.649 369.214 197.172V239.744C369.214 245.267 364.737 249.744 359.214 249.744H306.642V187.172Z" fill="white"/>
<path d="M306.642 434.112C306.642 428.589 311.119 424.112 316.642 424.112H359.214C364.737 424.112 369.214 428.589 369.214 434.112V486.684H306.642V434.112Z" fill="white"/>
<rect x="306.642" y="486.684" width="62.5723" height="62.5723" fill="white"/>
<path d="M306.642 549.256H369.214V601.829C369.214 607.351 364.737 611.829 359.214 611.829H306.642V549.256Z" fill="white"/>
<rect x="244.069" y="549.256" width="62.5723" height="62.5723" fill="white"/>
<path d="M181.497 549.256H244.069V611.829H191.497C185.974 611.829 181.497 607.351 181.497 601.829V549.256Z" fill="white"/>
<path d="M181.497 496.684C181.497 491.161 185.974 486.684 191.497 486.684H234.069C239.592 486.684 244.069 491.161 244.069 496.684V549.256H181.497V496.684Z" fill="white"/>
<path d="M431.786 197.172C431.786 191.649 436.263 187.172 441.786 187.172H484.358C489.881 187.172 494.358 191.649 494.358 197.172V249.744H431.786V197.172Z" fill="white"/>
<rect x="431.786" y="249.744" width="62.5723" height="62.5723" fill="white"/>
<path d="M431.786 312.316H494.358V374.888H441.786C436.263 374.888 431.786 370.411 431.786 364.888V312.316Z" fill="white"/>
<rect x="494.358" y="312.316" width="62.5723" height="62.5723" fill="white"/>
<path d="M494.358 249.744H546.931C552.453 249.744 556.931 254.221 556.931 259.744V312.316H494.358V249.744Z" fill="white"/>
<path d="M556.931 312.316H609.503C615.026 312.316 619.503 316.793 619.503 322.316V364.888C619.503 370.411 615.026 374.888 609.503 374.888H556.931V312.316Z" fill="white"/>
<path d="M431.786 434.112C431.786 428.589 436.263 424.112 441.786 424.112H484.358C489.881 424.112 494.358 428.589 494.358 434.112V486.684H431.786V434.112Z" fill="white"/>
<path d="M556.931 434.112C556.931 428.589 561.408 424.112 566.931 424.112H609.503C615.026 424.112 619.503 428.589 619.503 434.112V486.684H556.931V434.112Z" fill="white"/>
<rect x="431.786" y="486.684" width="62.5723" height="62.5723" fill="white"/>
<rect x="556.931" y="486.684" width="62.5723" height="62.5723" fill="white"/>
<path d="M431.786 549.256H494.358V601.829C494.358 607.351 489.881 611.829 484.358 611.829H441.786C436.263 611.829 431.786 607.351 431.786 601.829V549.256Z" fill="white"/>
<path d="M556.931 549.256H619.503V601.829C619.503 607.351 615.026 611.829 609.503 611.829H566.931C561.408 611.829 556.931 607.351 556.931 601.829V549.256Z" fill="white"/>
</svg>
